<svg width="18" height="19" viewBox="0 0 18 19" fill="none" xmlns="http://www.w3.org/2000/svg">
<g id="enter" clip-path="url(#clip0_961_4530)">
<g id="Group">
<path id="Vector" d="M12.7125 1.08926H9.53439C8.80314 1.08926 8.18439 1.70801 8.18439 2.43926V4.37989C8.18439 4.71739 8.46564 4.99864 8.80314 4.99864C9.14064 4.99864 9.45001 4.71739 9.45001 4.37989V2.41114C9.45001 2.35489 9.47814 2.32676 9.53439 2.32676H12.7125C13.3875 2.32676 13.9219 2.86114 13.9219 3.53614V15.6018C13.9219 16.2768 13.3875 16.8111 12.7125 16.8111H9.53439C9.47814 16.8111 9.45001 16.783 9.45001 16.7268V14.7861C9.45001 14.4486 9.16876 14.1674 8.80314 14.1674C8.43751 14.1674 8.18439 14.4486 8.18439 14.7861V16.7268C8.18439 17.458 8.80314 18.0768 9.53439 18.0768H12.7125C14.0906 18.0768 15.1875 16.9518 15.1875 15.6018V3.56426C15.1875 2.18614 14.0625 1.08926 12.7125 1.08926Z" fill="#DEE4EE"/>
<path id="Vector_2" d="M10.4344 9.13301L7.62189 6.26426C7.36876 6.01114 6.97501 6.01114 6.72189 6.26426C6.46876 6.51739 6.46876 6.91114 6.72189 7.16426L8.46564 8.93614H3.45939C3.12189 8.93614 2.84064 9.21739 2.84064 9.55489C2.84064 9.89239 3.12189 10.1736 3.45939 10.1736H8.49376L6.72189 11.9736C6.46876 12.2268 6.46876 12.6205 6.72189 12.8736C6.83439 12.9861 7.00314 13.0424 7.17189 13.0424C7.34064 13.0424 7.50939 12.9861 7.62189 12.8455L10.4344 9.97676C10.6875 9.77989 10.6875 9.38614 10.4344 9.13301Z" fill="#DEE4EE"/>
</g>
</g>
<defs>
<clipPath id="clip0_961_4530">
<rect width="18" height="18" fill="white" transform="translate(0 0.583008)"/>
</clipPath>
</defs>
</svg>
