<svg width="18" height="18" viewBox="0 0 18 18" fill="none" xmlns="http://www.w3.org/2000/svg">
<g id="grid-alt">
<g id="Group">
<path id="Vector" d="M6.1031 0.956299H2.53123C1.57498 0.956299 0.787476 1.7438 0.787476 2.70005V6.27192C0.787476 7.22817 1.57498 8.01567 2.53123 8.01567H6.1031C7.05935 8.01567 7.84685 7.22817 7.84685 6.27192V2.72817C7.87498 1.7438 7.08748 0.956299 6.1031 0.956299ZM6.60935 6.30005C6.60935 6.5813 6.38435 6.8063 6.1031 6.8063H2.53123C2.24998 6.8063 2.02498 6.5813 2.02498 6.30005V2.72817C2.02498 2.44692 2.24998 2.22192 2.53123 2.22192H6.1031C6.38435 2.22192 6.60935 2.44692 6.60935 2.72817V6.30005Z" fill="#DEE4EE"/>
<path id="Vector_2" d="M15.4687 0.956299H11.8968C10.9406 0.956299 10.1531 1.7438 10.1531 2.70005V6.27192C10.1531 7.22817 10.9406 8.01567 11.8968 8.01567H15.4687C16.425 8.01567 17.2125 7.22817 17.2125 6.27192V2.72817C17.2125 1.7438 16.425 0.956299 15.4687 0.956299ZM15.975 6.30005C15.975 6.5813 15.75 6.8063 15.4687 6.8063H11.8968C11.6156 6.8063 11.3906 6.5813 11.3906 6.30005V2.72817C11.3906 2.44692 11.6156 2.22192 11.8968 2.22192H15.4687C15.75 2.22192 15.975 2.44692 15.975 2.72817V6.30005Z" fill="#DEE4EE"/>
<path id="Vector_3" d="M6.1031 9.92822H2.53123C1.57498 9.92822 0.787476 10.7157 0.787476 11.672V15.2438C0.787476 16.2001 1.57498 16.9876 2.53123 16.9876H6.1031C7.05935 16.9876 7.84685 16.2001 7.84685 15.2438V11.7001C7.87498 10.7157 7.08748 9.92822 6.1031 9.92822ZM6.60935 15.272C6.60935 15.5532 6.38435 15.7782 6.1031 15.7782H2.53123C2.24998 15.7782 2.02498 15.5532 2.02498 15.272V11.7001C2.02498 11.4188 2.24998 11.1938 2.53123 11.1938H6.1031C6.38435 11.1938 6.60935 11.4188 6.60935 11.7001V15.272Z" fill="#DEE4EE"/>
<path id="Vector_4" d="M15.4687 9.92822H11.8968C10.9406 9.92822 10.1531 10.7157 10.1531 11.672V15.2438C10.1531 16.2001 10.9406 16.9876 11.8968 16.9876H15.4687C16.425 16.9876 17.2125 16.2001 17.2125 15.2438V11.7001C17.2125 10.7157 16.425 9.92822 15.4687 9.92822ZM15.975 15.272C15.975 15.5532 15.75 15.7782 15.4687 15.7782H11.8968C11.6156 15.7782 11.3906 15.5532 11.3906 15.272V11.7001C11.3906 11.4188 11.6156 11.1938 11.8968 11.1938H15.4687C15.75 11.1938 15.975 11.4188 15.975 11.7001V15.272Z" fill="#DEE4EE"/>
</g>
</g>
</svg>
