<svg width="18" height="18" viewBox="0 0 18 18" fill="none" xmlns="http://www.w3.org/2000/svg">
<g id="inbox">
<g id="Group">
<path id="Vector" d="M16.875 7.3969C16.5375 7.3969 16.2281 7.67815 16.2281 8.04377V13.3313C16.2281 14.4282 15.4125 15.3 14.4 15.3H3.60002C2.5594 15.3 1.7719 14.4282 1.7719 13.3313V8.01565C1.7719 7.67815 1.49065 7.36877 1.12502 7.36877C0.759399 7.36877 0.478149 7.65002 0.478149 8.01565V13.3031C0.478149 15.075 1.85627 16.5375 3.5719 16.5375H14.4C16.1156 16.5375 17.4938 15.1031 17.4938 13.3031V8.01565C17.5219 7.67815 17.2125 7.3969 16.875 7.3969Z" fill="#DEE4EE"/>
<path id="Vector_2" d="M8.55005 11.5875C8.66255 11.7 8.8313 11.7844 9.00005 11.7844C9.1688 11.7844 9.30942 11.7281 9.45005 11.5875L12.8813 8.1844C13.1344 7.93127 13.1344 7.53752 12.8813 7.2844C12.6282 7.03127 12.2344 7.03127 11.9813 7.2844L9.64692 9.59065V2.1094C9.64692 1.7719 9.36567 1.46252 9.00005 1.46252C8.66255 1.46252 8.35317 1.74377 8.35317 2.1094V9.6469L6.0188 7.31252C5.76567 7.0594 5.37192 7.0594 5.1188 7.31252C4.86567 7.56565 4.86567 7.9594 5.1188 8.21252L8.55005 11.5875Z" fill="#DEE4EE"/>
</g>
</g>
</svg>
