<svg width="18" height="18" viewBox="0 0 18 18" fill="none" xmlns="http://www.w3.org/2000/svg">
<g id="invoice-1">
<g id="Group">
<path id="Vector" d="M15.8344 2.4469C15.8344 1.37815 14.9625 0.478149 13.8656 0.478149H4.1344C3.06565 0.478149 2.16565 1.35002 2.16565 2.4469V16.5656C2.16565 16.7906 2.30627 17.0156 2.50315 17.1281C2.70002 17.2407 2.95315 17.2125 3.15002 17.1L4.55627 16.1719L6.44065 17.4094C6.66565 17.55 6.91877 17.55 7.14377 17.4094L9.00002 16.1719L10.8563 17.4094C10.9688 17.4938 11.0813 17.5219 11.1938 17.5219C11.3063 17.5219 11.4469 17.4938 11.5313 17.4094L13.3875 16.1719L14.7938 17.1281C14.9906 17.2688 15.2438 17.2688 15.4406 17.1563C15.6375 17.0438 15.7781 16.8188 15.7781 16.5938L15.8344 2.4469ZM14.0344 15.0469C13.6688 14.7938 13.1906 14.7938 12.825 15.0469L11.2219 16.1156L9.61877 15.0469C9.4219 14.9344 9.22502 14.85 9.00002 14.85C8.80315 14.85 8.57815 14.9063 8.4094 15.0469L6.80627 16.1156L5.20315 15.0469C4.83752 14.7938 4.3594 14.7938 3.99377 15.0469L3.4594 15.3844V2.4469C3.4594 2.05315 3.76877 1.74377 4.16252 1.74377H13.9219C14.3156 1.74377 14.625 2.05315 14.625 2.4469V15.3844L14.0344 15.0469Z" fill="#DEE4EE"/>
<path id="Vector_2" d="M7.9313 3.7406H5.51255C5.17505 3.7406 4.8938 4.02185 4.8938 4.35935C4.8938 4.69685 5.17505 4.9781 5.51255 4.9781H7.9313C8.2688 4.9781 8.55005 4.69685 8.55005 4.35935C8.55005 4.02185 8.2688 3.7406 7.9313 3.7406Z" fill="#DEE4EE"/>
<path id="Vector_3" d="M12.3469 3.7406H11.6719C11.3344 3.7406 11.0532 4.02185 11.0532 4.35935C11.0532 4.69685 11.3344 4.9781 11.6719 4.9781H12.3469C12.6844 4.9781 12.9657 4.69685 12.9657 4.35935C12.9657 4.02185 12.6844 3.7406 12.3469 3.7406Z" fill="#DEE4EE"/>
<path id="Vector_4" d="M5.51255 8.69062H7.05942C7.39692 8.69062 7.67817 8.40938 7.67817 8.07188C7.67817 7.73438 7.39692 7.45312 7.05942 7.45312H5.51255C5.17505 7.45312 4.8938 7.73438 4.8938 8.07188C4.8938 8.40938 5.14692 8.69062 5.51255 8.69062Z" fill="#DEE4EE"/>
<path id="Vector_5" d="M12.3469 7.42505H11.6719C11.3344 7.42505 11.0532 7.7063 11.0532 8.0438C11.0532 8.3813 11.3344 8.66255 11.6719 8.66255H12.3469C12.6844 8.66255 12.9657 8.3813 12.9657 8.0438C12.9657 7.7063 12.6844 7.42505 12.3469 7.42505Z" fill="#DEE4EE"/>
<path id="Vector_6" d="M7.9313 11.0813H5.51255C5.17505 11.0813 4.8938 11.3625 4.8938 11.7C4.8938 12.0375 5.17505 12.3188 5.51255 12.3188H7.9313C8.2688 12.3188 8.55005 12.0375 8.55005 11.7C8.55005 11.3625 8.2688 11.0813 7.9313 11.0813Z" fill="#DEE4EE"/>
<path id="Vector_7" d="M12.3469 11.0813H11.6719C11.3344 11.0813 11.0532 11.3625 11.0532 11.7C11.0532 12.0375 11.3344 12.3188 11.6719 12.3188H12.3469C12.6844 12.3188 12.9657 12.0375 12.9657 11.7C12.9657 11.3625 12.6844 11.0813 12.3469 11.0813Z" fill="#DEE4EE"/>
</g>
</g>
</svg>
