<svg width="18" height="18" viewBox="0 0 18 18" fill="none" xmlns="http://www.w3.org/2000/svg">
<g id="layout-alt-1" clip-path="url(#clip0_961_4520)">
<g id="Group">
<path id="Vector" d="M15.75 0.506226H2.24998C1.29373 0.506226 0.506226 1.29373 0.506226 2.24998V7.48123C0.506226 8.43748 1.29373 9.22498 2.24998 9.22498H15.75C16.7062 9.22498 17.4937 8.43748 17.4937 7.48123V2.24998C17.4937 1.29373 16.7062 0.506226 15.75 0.506226ZM16.2562 7.48123C16.2562 7.76248 16.0312 7.98748 15.75 7.98748H2.24998C1.96873 7.98748 1.74373 7.76248 1.74373 7.48123V2.24998C1.74373 1.96873 1.96873 1.74373 2.24998 1.74373H15.75C16.0312 1.74373 16.2562 1.96873 16.2562 2.24998V7.48123Z" fill="#DEE4EE"/>
<path id="Vector_2" d="M6.13123 10.9125H2.24998C1.29373 10.9125 0.506226 11.7 0.506226 12.6562V15.75C0.506226 16.7062 1.29373 17.4937 2.24998 17.4937H6.13123C7.08748 17.4937 7.87498 16.7062 7.87498 15.75V12.6562C7.9031 11.7 7.1156 10.9125 6.13123 10.9125ZM6.63748 15.75C6.63748 16.0312 6.41248 16.2562 6.13123 16.2562H2.24998C1.96873 16.2562 1.74373 16.0312 1.74373 15.75V12.6562C1.74373 12.375 1.96873 12.15 2.24998 12.15H6.13123C6.41248 12.15 6.63748 12.375 6.63748 12.6562V15.75Z" fill="#DEE4EE"/>
<path id="Vector_3" d="M15.75 10.9125H11.8688C10.9125 10.9125 10.125 11.7 10.125 12.6562V15.75C10.125 16.7062 10.9125 17.4937 11.8688 17.4937H15.75C16.7063 17.4937 17.4938 16.7062 17.4938 15.75V12.6562C17.4938 11.7 16.7063 10.9125 15.75 10.9125ZM16.2562 15.75C16.2562 16.0312 16.0312 16.2562 15.75 16.2562H11.8688C11.5875 16.2562 11.3625 16.0312 11.3625 15.75V12.6562C11.3625 12.375 11.5875 12.15 11.8688 12.15H15.75C16.0312 12.15 16.2562 12.375 16.2562 12.6562V15.75Z" fill="#DEE4EE"/>
</g>
</g>
<defs>
<clipPath id="clip0_961_4520">
<rect width="18" height="18" fill="white"/>
</clipPath>
</defs>
</svg>
