<svg width="18" height="18" viewBox="0 0 18 18" fill="none" xmlns="http://www.w3.org/2000/svg">
<g id="list-alt" clip-path="url(#clip0_961_4429)">
<g id="Group">
<path id="Vector" d="M3.4594 0.984375H1.68752C1.04065 0.984375 0.478149 1.51875 0.478149 2.19375V3.96563C0.478149 4.6125 1.01252 5.175 1.68752 5.175H3.4594C4.10627 5.175 4.66877 4.64063 4.66877 3.96563V2.16562C4.64065 1.51875 4.10627 0.984375 3.4594 0.984375ZM3.37502 3.88125H1.7719V2.25H3.37502V3.88125Z" fill="#DEE4EE"/>
<path id="Vector_2" d="M7.22817 3.71245H16.875C17.2125 3.71245 17.5219 3.4312 17.5219 3.06558C17.5219 2.69995 17.2407 2.4187 16.875 2.4187H7.22817C6.89067 2.4187 6.5813 2.69995 6.5813 3.06558C6.5813 3.4312 6.89067 3.71245 7.22817 3.71245Z" fill="#DEE4EE"/>
<path id="Vector_3" d="M3.4594 6.75H1.68752C1.04065 6.75 0.478149 7.28437 0.478149 7.95937V9.73125C0.478149 10.3781 1.01252 10.9406 1.68752 10.9406H3.4594C4.10627 10.9406 4.66877 10.4062 4.66877 9.73125V7.95937C4.64065 7.28437 4.10627 6.75 3.4594 6.75ZM3.37502 9.64687H1.7719V8.01562H3.37502V9.64687Z" fill="#DEE4EE"/>
<path id="Vector_4" d="M16.875 8.21252H7.22817C6.89067 8.21252 6.5813 8.49377 6.5813 8.8594C6.5813 9.22502 6.86255 9.47815 7.22817 9.47815H16.875C17.2125 9.47815 17.5219 9.1969 17.5219 8.8594C17.5219 8.5219 17.2125 8.21252 16.875 8.21252Z" fill="#DEE4EE"/>
<path id="Vector_5" d="M3.4594 12.8531H1.68752C1.04065 12.8531 0.478149 13.3875 0.478149 14.0625V15.8344C0.478149 16.4813 1.01252 17.0438 1.68752 17.0438H3.4594C4.10627 17.0438 4.66877 16.5094 4.66877 15.8344V14.0625C4.64065 13.3875 4.10627 12.8531 3.4594 12.8531ZM3.37502 15.75H1.7719V14.1188H3.37502V15.75Z" fill="#DEE4EE"/>
<path id="Vector_6" d="M16.875 14.2875H7.22817C6.89067 14.2875 6.5813 14.5687 6.5813 14.9344C6.5813 15.3 6.86255 15.5812 7.22817 15.5812H16.875C17.2125 15.5812 17.5219 15.3 17.5219 14.9344C17.5219 14.5687 17.2125 14.2875 16.875 14.2875Z" fill="#DEE4EE"/>
</g>
</g>
<defs>
<clipPath id="clip0_961_4429">
<rect width="18" height="18" fill="white"/>
</clipPath>
</defs>
</svg>
