<svg width="18" height="18" viewBox="0 0 18 18" fill="none" xmlns="http://www.w3.org/2000/svg">
<g id="page">
<g id="Group">
<path id="Vector" d="M14.2875 0.506226H3.7125C2.75625 0.506226 1.96875 1.29373 1.96875 2.24998V15.75C1.96875 16.7062 2.75625 17.5219 3.74063 17.5219H14.3156C15.2719 17.5219 16.0875 16.7344 16.0875 15.75V2.24998C16.0313 1.29373 15.2438 0.506226 14.2875 0.506226ZM14.7656 15.75C14.7656 16.0312 14.5406 16.2562 14.2594 16.2562H3.7125C3.43125 16.2562 3.20625 16.0312 3.20625 15.75V2.24998C3.20625 1.96873 3.43125 1.74373 3.7125 1.74373H14.2875C14.5688 1.74373 14.7938 1.96873 14.7938 2.24998V15.75H14.7656Z" fill="#DEE4EE"/>
<path id="Vector_2" d="M12.7969 2.6156H9.73123C9.22498 2.6156 8.8031 3.03748 8.8031 3.54373V7.25623C8.8031 7.76248 9.22498 8.18435 9.73123 8.18435H12.7969C13.3031 8.18435 13.725 7.76248 13.725 7.25623V3.5156C13.6969 3.03748 13.3031 2.6156 12.7969 2.6156ZM12.4312 6.8906H10.0687V3.88123H12.4312V6.8906Z" fill="#DEE4EE"/>
<path id="Vector_3" d="M4.9781 4.35938H7.03123C7.36873 4.35938 7.6781 4.07812 7.6781 3.7125C7.6781 3.34687 7.39685 3.09375 7.03123 3.09375H4.94998C4.61248 3.09375 4.3031 3.375 4.3031 3.74063C4.3031 4.10625 4.61248 4.35938 4.9781 4.35938Z" fill="#DEE4EE"/>
<path id="Vector_4" d="M4.9781 7.9312H7.03123C7.36873 7.9312 7.6781 7.64995 7.6781 7.28433C7.6781 6.9187 7.39685 6.63745 7.03123 6.63745H4.94998C4.61248 6.63745 4.3031 6.9187 4.3031 7.28433C4.3031 7.64995 4.61248 7.9312 4.9781 7.9312Z" fill="#DEE4EE"/>
<path id="Vector_5" d="M13.0781 10.2374H4.97811C4.64061 10.2374 4.33124 10.5187 4.33124 10.8843C4.33124 11.2499 4.61249 11.5312 4.97811 11.5312H13.0781C13.4156 11.5312 13.725 11.2499 13.725 10.8843C13.725 10.5187 13.4156 10.2374 13.0781 10.2374Z" fill="#DEE4EE"/>
<path id="Vector_6" d="M13.0781 13.8093H4.97811C4.64061 13.8093 4.33124 14.0906 4.33124 14.4562C4.33124 14.8218 4.61249 15.1031 4.97811 15.1031H13.0781C13.4156 15.1031 13.725 14.8218 13.725 14.4562C13.725 14.0906 13.4156 13.8093 13.0781 13.8093Z" fill="#DEE4EE"/>
</g>
</g>
</svg>
