<svg width="18" height="18" viewBox="0 0 18 18" fill="none" xmlns="http://www.w3.org/2000/svg">
<g id="table" clip-path="url(#clip0_961_4465)">
<path id="Vector" d="M15.75 0.506226H2.24998C1.29373 0.506226 0.506226 1.29373 0.506226 2.24998V15.75C0.506226 16.7062 1.29373 17.5219 2.2781 17.5219H15.7781C16.7344 17.5219 17.55 16.7344 17.55 15.75V2.24998C17.5219 1.29373 16.7062 0.506226 15.75 0.506226ZM6.69373 10.5469V6.41248H11.3062V10.5187H6.69373V10.5469ZM11.3062 11.8125V16.2562H6.69373V11.8125H11.3062ZM1.77185 6.41248H5.45623V10.5187H1.77185V6.41248ZM12.5719 6.41248H16.2562V10.5187H12.5719V6.41248ZM2.24998 1.77185H15.75C16.0312 1.77185 16.2562 1.99685 16.2562 2.2781V5.17498H1.77185V2.24998C1.77185 1.96873 1.96873 1.77185 2.24998 1.77185ZM1.77185 15.75V11.8125H5.45623V16.2562H2.24998C1.96873 16.2562 1.77185 16.0312 1.77185 15.75ZM15.75 16.2562H12.5719V11.8125H16.2562V15.75C16.2562 16.0312 16.0312 16.2562 15.75 16.2562Z" fill="#DEE4EE"/>
</g>
<defs>
<clipPath id="clip0_961_4465">
<rect width="18" height="18" fill="white"/>
</clipPath>
</defs>
</svg>
