<svg width="18" height="18" viewBox="0 0 18 18" fill="none" xmlns="http://www.w3.org/2000/svg">
<g id="user-alt-4">
<g id="Group">
<path id="Vector" d="M9.00001 7.79065C11.0813 7.79065 12.7688 6.1594 12.7688 4.1344C12.7688 2.1094 11.0813 0.478149 9.00001 0.478149C6.91876 0.478149 5.23126 2.1094 5.23126 4.1344C5.23126 6.1594 6.91876 7.79065 9.00001 7.79065ZM9.00001 1.7719C10.3781 1.7719 11.5031 2.84065 11.5031 4.16252C11.5031 5.4844 10.3781 6.55315 9.00001 6.55315C7.62189 6.55315 6.49689 5.4844 6.49689 4.16252C6.49689 2.84065 7.62189 1.7719 9.00001 1.7719Z" fill="#DEE4EE"/>
<path id="Vector_2" d="M10.8281 9.05627H7.17189C4.16251 9.05627 1.71564 11.5313 1.71564 14.5406V16.875C1.71564 17.2125 1.99689 17.5219 2.36251 17.5219C2.72814 17.5219 3.00939 17.2407 3.00939 16.875V14.5406C3.00939 12.2344 4.89376 10.3219 7.22814 10.3219H10.8563C13.1625 10.3219 15.075 12.2063 15.075 14.5406V16.875C15.075 17.2125 15.3563 17.5219 15.7219 17.5219C16.0875 17.5219 16.3688 17.2407 16.3688 16.875V14.5406C16.2844 11.5313 13.8375 9.05627 10.8281 9.05627Z" fill="#DEE4EE"/>
</g>
</g>
</svg>
